# xmcd CD database file
#
# Track frame offsets:
#	150
#	13237
#	25302
#	35680
#	57925
#	72014
#	86139
#	101487
#	116120
#	128388
#	136034
#
# Disc length: 2018 seconds
#
# Revision: 0
# Processed by: cddbd v1.5.2PL0 Copyright (c) Steve Scherf et al.
# Submitted via: CDex 1.70beta2
#
DISCID=8f07e00b
DTITLE=Allen, Marty - Cdn. - ON - Blue Church Road
DYEAR=2005
DGENRE=Country
TTITLE0=Come Back Baby
TTITLE1=Night Turns To Day
TTITLE2=Down the Highway
TTITLE3=Angelina
TTITLE4=Find Me A Woman
TTITLE5=Blue Church Road
TTITLE6=Jesus
TTITLE7=Doing Alright
TTITLE8=One More Night
TTITLE9=Winding Road
TTITLE10=Prarie Girl
EXTD=YEAR: 2005
EXTT0=
EXTT1=
EXTT2=
EXTT3=
EXTT4=
EXTT5=
EXTT6=
EXTT7=
EXTT8=
EXTT9=
EXTT10=
PLAYORDER=
